<svg xmlns="http://www.w3.org/2000/svg" width="27" height="27" viewBox="0 0 27 27"><defs><style>.a{fill:#21f812;}</style></defs><g transform="translate(-4.5 -4.5)"><path class="a" d="M29.25,4.5H6.75A2.248,2.248,0,0,0,4.5,6.75v22.5A2.248,2.248,0,0,0,6.75,31.5h22.5a2.248,2.248,0,0,0,2.25-2.25V6.75A2.248,2.248,0,0,0,29.25,4.5Zm.281,24.469a.564.564,0,0,1-.562.563H7.031a.564.564,0,0,1-.562-.562V7.031a.564.564,0,0,1,.563-.562H28.969a.564.564,0,0,1,.563.563Z"/><path class="a" d="M25.566,13.563l-1.237-1.273a.266.266,0,0,0-.2-.084h0a.255.255,0,0,0-.2.084l-8.578,8.641L12.234,17.81a.272.272,0,0,0-.394,0l-1.252,1.252a.28.28,0,0,0,0,.4L14.527,23.4a1.245,1.245,0,0,0,.823.4,1.3,1.3,0,0,0,.816-.387h.007l9.4-9.45A.3.3,0,0,0,25.566,13.563Z"/></g></svg>