<svg xmlns="http://www.w3.org/2000/svg" width="22.5" height="18" viewBox="0 0 22.5 18"><defs><style>.a{fill:#777;}</style></defs><path class="a" d="M11.25,14.062a5.044,5.044,0,0,1-5.024-4.68L2.538,6.533A11.717,11.717,0,0,0,1.247,8.487a1.137,1.137,0,0,0,0,1.026,11.276,11.276,0,0,0,10,6.237,10.92,10.92,0,0,0,2.738-.368l-1.824-1.412a5.067,5.067,0,0,1-.914.092ZM22.283,16.1l-3.887-3a11.646,11.646,0,0,0,2.856-3.588,1.137,1.137,0,0,0,0-1.026,11.276,11.276,0,0,0-10-6.237A10.833,10.833,0,0,0,6.071,3.575L1.6.118a.563.563,0,0,0-.79.1l-.69.888a.563.563,0,0,0,.1.789L20.9,17.881a.563.563,0,0,0,.79-.1l.69-.888a.563.563,0,0,0-.1-.789Zm-6.459-4.992-1.382-1.068A3.331,3.331,0,0,0,10.36,5.758a1.675,1.675,0,0,1,.327.992,1.64,1.64,0,0,1-.054.352l-2.588-2a5,5,0,0,1,3.2-1.164A5.06,5.06,0,0,1,16.313,9a4.942,4.942,0,0,1-.489,2.113Z" transform="translate(0 0)"/></svg>