<svg xmlns="http://www.w3.org/2000/svg" width="38.117" height="27.523" viewBox="0 0 38.117 27.523"><defs><style>.a,.b,.c{fill:none;}.a,.b{stroke-linecap:round;stroke-linejoin:round;}.b,.c{stroke:#fff;stroke-width:1.5px;}.d,.e{stroke:none;}.e{fill:#fff;}</style></defs><g transform="translate(-15.481 -103.223)"><g transform="translate(33.723 103.223)"><g class="a" transform="translate(5.473)"><path class="d" d="M0,13.093V2A2,2,0,0,1,2,0H12.4a2,2,0,0,1,2,2V13.093a2,2,0,0,1-2,2H2.6L0,17.384Z"/><path class="e" d="M 1.50000011920929 14.06394863128662 L 1.609800100326538 13.96726036071777 C 1.883700132369995 13.72606086730957 2.236150026321411 13.5930004119873 2.601109981536865 13.5930004119873 L 12.40200042724609 13.5930004119873 C 12.67759037017822 13.5930004119873 12.90180015563965 13.36879062652588 12.90180015563965 13.09320068359375 L 12.90180015563965 1.999800562858582 C 12.90180015563965 1.724210500717163 12.67759037017822 1.500000476837158 12.40200042724609 1.500000476837158 L 2.000699996948242 1.500000476837158 C 1.724610090255737 1.500000476837158 1.50000011920929 1.724210500717163 1.50000011920929 1.999800562858582 L 1.50000011920929 13.09320068359375 L 1.50000011920929 14.06394863128662 M 7.781981992138753e-08 17.38350105285645 L 7.781981992138753e-08 13.09320068359375 L 7.781981992138753e-08 1.999800562858582 C 7.781981992138753e-08 0.8955005407333374 0.8955000638961792 5.264282094685768e-07 2.000699996948242 5.264282094685768e-07 L 12.40200042724609 5.264282094685768e-07 C 13.50629997253418 5.264282094685768e-07 14.40180015563965 0.8955005407333374 14.40180015563965 1.999800562858582 L 14.40180015563965 13.09320068359375 C 14.40180015563965 14.19750022888184 13.50629997253418 15.0930004119873 12.40200042724609 15.0930004119873 L 2.601109981536865 15.0930004119873 L 7.781981992138753e-08 17.38350105285645 Z"/></g><path class="b" d="M4.013,3.847h0v0h0v0Z" transform="translate(8.628 3.936)"/><path class="c" d="M9.9,11.136A5.568,5.568,0,1,0,4.331,5.568,5.569,5.569,0,0,0,9.9,11.136Zm4.949,1.237h-2.13a6.731,6.731,0,0,1-5.637,0H4.949A4.949,4.949,0,0,0,0,17.322v.619A1.856,1.856,0,0,0,1.856,19.8H17.941A1.856,1.856,0,0,0,19.8,17.941v-.619A4.949,4.949,0,0,0,14.848,12.373Z" transform="translate(-17.492 6.976)"/></g></g></svg>