<svg xmlns="http://www.w3.org/2000/svg" xmlns:xlink="http://www.w3.org/1999/xlink" width="73" height="51" viewBox="0 0 73 51"><defs><style>.a{clip-path:url(#a);}.b{fill:url(#b);}.c,.e,.f{opacity:0.5;}.c{fill:url(#c);}.d{fill:url(#d);}.e{fill:url(#e);}.f{fill:url(#f);}.g{fill:url(#g);}.h{fill:#fff;}</style><clipPath id="a"><rect width="73" height="51"/></clipPath><linearGradient id="b" x1="0.5" x2="0.5" y2="1" gradientUnits="objectBoundingBox"><stop offset="0" stop-color="#fa40a9"/><stop offset="1" stop-color="#ff911e"/></linearGradient><linearGradient id="c" x1="0.5" x2="0.5" y2="1" gradientUnits="objectBoundingBox"><stop offset="0" stop-color="#ff004b"/><stop offset="1" stop-color="#ef4444"/></linearGradient><linearGradient id="d" x1="0.287" y1="0.951" x2="0.498" y2="-0.067" gradientUnits="objectBoundingBox"><stop offset="0" stop-color="#f88a12"/><stop offset="1" stop-color="#b22704"/></linearGradient><linearGradient id="e" x1="0.5" x2="0.5" y2="1" gradientUnits="objectBoundingBox"><stop offset="0" stop-color="#b400ff"/><stop offset="1" stop-color="#ef4444"/></linearGradient><linearGradient id="f" x1="0.332" y1="0.795" x2="0.608" y2="0.026" gradientUnits="objectBoundingBox"><stop offset="0" stop-color="#f88a12"/><stop offset="1" stop-color="#cd2d05"/></linearGradient><linearGradient id="g" x1="0.5" y1="0" x2="0.5" y2="1" xlink:href="#f"/></defs><g class="a"><g transform="translate(11.416 0.737)"><g transform="translate(0 0)"><g transform="translate(0 3.857)"><path class="b" d="M17.224,0c8.2,0,20.511,21.266,16.409,28.355s-28.716,7.089-32.818,0S9.019,0,17.224,0Z" transform="translate(0 13.469) rotate(-23.003)"/><path class="c" d="M7.91,0c10.945-.01,10.263,11.97,6.847,17.873s-8.4,7-11.818,1.092S-3.035.01,7.91,0Z" transform="matrix(-0.857, -0.515, 0.515, -0.857, 21.132, 39.034)"/></g><g transform="translate(7.118 0) rotate(7)"><path class="d" d="M15.934,0c7.59,0,18.976,19.674,15.181,26.232S4.549,32.79.754,26.232,8.344,0,15.934,0Z" transform="matrix(0.656, 0.755, -0.755, 0.656, 24.244, 0)"/><path class="e" d="M.7,3.08S1.5,10.962,12,6.916,25.223-4.536,27.763,3.788s-.731,20.446-7.567,22.86c-2.8,1.243-9.114-2.829-12.9-6.959C-3.171,7.451.7,3.08.7,3.08Z" transform="translate(4.638 13.898)"/><path class="f" d="M14.984,0c3.186,0,21.936,14.827,16.5,24.4-3.627,3.246-8.924,4.559-13.876,4.325C8.756,28.312,1.148,22.409.357,20.818-2.08,15.92,8.534,0,14.984,0Z" transform="matrix(0.656, 0.755, -0.755, 0.656, 21.702, 0.946)"/></g><circle class="g" cx="1.819" cy="1.819" r="1.819" transform="translate(8.828 10.515)"/><circle class="g" cx="1.819" cy="1.819" r="1.819" transform="translate(44.422 37.62) rotate(-173)"/><circle class="g" cx="0.91" cy="0.91" r="0.91" transform="translate(9.997 7.267)"/></g><g transform="translate(16.658 20.081)"><path class="h" d="M21.087-192.251v-2.988a3.228,3.228,0,0,0,1.223.294,2.151,2.151,0,0,0,2.17-1.885,3.456,3.456,0,0,1-1.765.533,2.667,2.667,0,0,1-2.106-.952,3.56,3.56,0,0,1-.828-2.423v-5.765H23.22v4.929q0,.818.68.818.653,0,.653-.9v-4.846h3.439v8.184a5.262,5.262,0,0,1-1.287,3.7,4.859,4.859,0,0,1-3.715,1.673A5.223,5.223,0,0,1,21.087-192.251Z" transform="translate(-19.781 205.667)"/><path class="h" d="M13.092-181.925h3.546v8.735a5.339,5.339,0,0,1-1.138,3.536,4.655,4.655,0,0,1-1.664,1.252,4.907,4.907,0,0,1-2.071.465A4.9,4.9,0,0,1,8.2-169.359a4.7,4.7,0,0,1-1.451-3.489,4.76,4.76,0,0,1,1.441-3.46,4.635,4.635,0,0,1,3.413-1.46q.313,0,.948.057v3.906a1.414,1.414,0,0,0-.872-.341,1.272,1.272,0,0,0-.943.4,1.341,1.341,0,0,0-.393.972,1.265,1.265,0,0,0,.408.943,1.356,1.356,0,0,0,.977.393q1.365,0,1.365-1.887Z" transform="translate(0.63 181.925)"/></g></g></g></svg>